<svg width="193" height="237" viewBox="0 0 193 237" fill="none" xmlns="http://www.w3.org/2000/svg">
<path fill-rule="evenodd" clip-rule="evenodd" d="M22.5 1L1 13V224.5L22.5 236L192.5 130V105.5L22.5 1ZM24 27.5V208.302L170.5 118L24 27.5Z" fill="url(#paint0_linear)"/>
<path d="M1 13L0.756317 12.5634L0.5 12.7065V13H1ZM22.5 1L22.7618 0.574042L22.5122 0.420585L22.2563 0.563401L22.5 1ZM1 224.5H0.5V224.8L0.764174 224.941L1 224.5ZM22.5 236L22.2642 236.441L22.5192 236.577L22.7646 236.424L22.5 236ZM192.5 130L192.765 130.424L193 130.277V130H192.5ZM192.5 105.5H193V105.22L192.762 105.074L192.5 105.5ZM24 208.302H23.5V209.198L24.2624 208.728L24 208.302ZM24 27.5L24.2628 27.0746L23.5 26.6034V27.5H24ZM170.5 118L170.762 118.426L171.452 118L170.763 117.575L170.5 118ZM173.5 118L173.767 117.577L173.762 117.574L173.5 118ZM1.24368 13.4366L22.7437 1.4366L22.2563 0.563401L0.756317 12.5634L1.24368 13.4366ZM1.5 224.5V13H0.5V224.5H1.5ZM22.7358 235.559L1.23583 224.059L0.764174 224.941L22.2642 236.441L22.7358 235.559ZM192.235 129.576L22.2354 235.576L22.7646 236.424L192.765 130.424L192.235 129.576ZM192 105.5V130H193V105.5H192ZM22.2382 1.42596L192.238 105.926L192.762 105.074L22.7618 0.574042L22.2382 1.42596ZM24.5 208.302V27.5H23.5V208.302H24.5ZM170.238 117.574L23.7376 207.877L24.2624 208.728L170.762 118.426L170.238 117.574ZM23.7372 27.9254L170.237 118.425L170.763 117.575L24.2628 27.0746L23.7372 27.9254ZM22.7622 211.426L173.762 118.426L173.238 117.574L22.2378 210.574L22.7622 211.426ZM22 1V25H23V1H22ZM22 25V211H23V25H22ZM173.762 117.574L22.7622 24.5743L22.2378 25.4257L173.238 118.426L173.762 117.574ZM192.767 129.577L173.767 117.577L173.233 118.423L192.233 130.423L192.767 129.577ZM1.26588 224.923L22.7659 211.423L22.2341 210.577L0.734116 224.077L1.26588 224.923Z" fill="#F2F2F2"/>
<defs>
<linearGradient id="paint0_linear" x1="-18.5" y1="118" x2="210" y2="118" gradientUnits="userSpaceOnUse">
<stop stop-color="#F44B12"/>
<stop offset="1" stop-color="#FA0000"/>
</linearGradient>
</defs>
</svg>
